<mxfile host="65bd71144e">
    <diagram id="4CjTYKIHIE6JRckzVMxz" name="CarpoolingUsecase">
        <mxGraphModel dx="1208" dy="2309" grid="1" gridSize="10" guides="1" tooltips="1" connect="1" arrows="1" fold="1" page="1" pageScale="1" pageWidth="1169" pageHeight="1654" math="0" shadow="0">
            <root>
                <mxCell id="0"/>
                <mxCell id="1" parent="0"/>
                <mxCell id="2" style="edgeStyle=none;html=1;entryX=0;entryY=0.5;entryDx=0;entryDy=0;fontSize=21;" edge="1" parent="1" source="10" target="11">
                    <mxGeometry relative="1" as="geometry"/>
                </mxCell>
                <mxCell id="3" style="edgeStyle=none;rounded=0;html=1;entryX=0;entryY=0.5;entryDx=0;entryDy=0;fontSize=14;" edge="1" parent="1" source="10" target="20">
                    <mxGeometry relative="1" as="geometry"/>
                </mxCell>
                <mxCell id="49" style="edgeStyle=none;html=1;entryX=0;entryY=0.5;entryDx=0;entryDy=0;entryPerimeter=0;" edge="1" parent="1" source="10" target="47">
                    <mxGeometry relative="1" as="geometry"/>
                </mxCell>
                <mxCell id="10" value="User" style="shape=umlActor;html=1;verticalLabelPosition=bottom;verticalAlign=top;align=center;" vertex="1" parent="1">
                    <mxGeometry x="124" y="-1265" width="30" height="60" as="geometry"/>
                </mxCell>
                <mxCell id="11" value="Register" style="ellipse;whiteSpace=wrap;html=1;" vertex="1" parent="1">
                    <mxGeometry x="358" y="-1400" width="140" height="70" as="geometry"/>
                </mxCell>
                <mxCell id="12" value="Carpooling system" style="text;html=1;align=center;verticalAlign=middle;resizable=0;points=[];autosize=1;strokeColor=none;fillColor=none;fontSize=21;" vertex="1" parent="1">
                    <mxGeometry x="468" y="-1580" width="190" height="30" as="geometry"/>
                </mxCell>
                <mxCell id="13" value="Verification OTP" style="ellipse;whiteSpace=wrap;html=1;" vertex="1" parent="1">
                    <mxGeometry x="598" y="-1440" width="140" height="70" as="geometry"/>
                </mxCell>
                <mxCell id="14" value="Registration error" style="ellipse;whiteSpace=wrap;html=1;" vertex="1" parent="1">
                    <mxGeometry x="608" y="-1350" width="140" height="70" as="geometry"/>
                </mxCell>
                <mxCell id="20" value="&lt;font style=&quot;font-size: 14px&quot;&gt;Provide details:&lt;br&gt;&lt;/font&gt;" style="ellipse;whiteSpace=wrap;html=1;fontSize=21;fillColor=default;" vertex="1" parent="1">
                    <mxGeometry x="373" y="-1150" width="150" height="90" as="geometry"/>
                </mxCell>
                <mxCell id="37" value="&amp;lt;&amp;lt;include&amp;gt;&amp;gt;" style="edgeStyle=none;html=1;endArrow=open;verticalAlign=bottom;dashed=1;labelBackgroundColor=none;rounded=0;fontSize=14;exitX=1;exitY=0;exitDx=0;exitDy=0;entryX=0;entryY=0.5;entryDx=0;entryDy=0;" edge="1" parent="1" source="11" target="13">
                    <mxGeometry width="160" relative="1" as="geometry">
                        <mxPoint x="356" y="-1260" as="sourcePoint"/>
                        <mxPoint x="516" y="-1260" as="targetPoint"/>
                    </mxGeometry>
                </mxCell>
                <mxCell id="38" value="&amp;lt;&amp;lt;extend&amp;gt;&amp;gt;" style="edgeStyle=none;html=1;startArrow=open;endArrow=none;startSize=12;verticalAlign=bottom;dashed=1;labelBackgroundColor=none;rounded=0;fontSize=14;entryX=0;entryY=0.5;entryDx=0;entryDy=0;exitX=1;exitY=0.5;exitDx=0;exitDy=0;" edge="1" parent="1" source="11" target="14">
                    <mxGeometry width="160" relative="1" as="geometry">
                        <mxPoint x="466" y="-1190" as="sourcePoint"/>
                        <mxPoint x="626" y="-1190" as="targetPoint"/>
                    </mxGeometry>
                </mxCell>
                <mxCell id="42" style="edgeStyle=none;rounded=0;jumpStyle=arc;jumpSize=12;html=1;entryX=1;entryY=0.5;entryDx=0;entryDy=0;fontSize=14;" edge="1" parent="1" source="44" target="13">
                    <mxGeometry relative="1" as="geometry">
                        <mxPoint x="964" y="-1405" as="sourcePoint"/>
                    </mxGeometry>
                </mxCell>
                <mxCell id="43" style="edgeStyle=none;rounded=0;jumpStyle=arc;jumpSize=12;html=1;entryX=1;entryY=0.5;entryDx=0;entryDy=0;fontSize=14;" edge="1" parent="1" source="44" target="14">
                    <mxGeometry relative="1" as="geometry">
                        <Array as="points"/>
                        <mxPoint x="944" y="-1380" as="sourcePoint"/>
                    </mxGeometry>
                </mxCell>
                <mxCell id="57" style="edgeStyle=none;html=1;entryX=1;entryY=0.5;entryDx=0;entryDy=0;" edge="1" parent="1" source="44" target="51">
                    <mxGeometry relative="1" as="geometry">
                        <mxPoint x="944" y="-1360" as="sourcePoint"/>
                    </mxGeometry>
                </mxCell>
                <mxCell id="58" style="edgeStyle=none;html=1;entryX=1;entryY=0.5;entryDx=0;entryDy=0;" edge="1" parent="1" source="44" target="53">
                    <mxGeometry relative="1" as="geometry">
                        <mxPoint x="954" y="-1320" as="sourcePoint"/>
                    </mxGeometry>
                </mxCell>
                <mxCell id="44" value="System admin" style="shape=umlActor;html=1;verticalLabelPosition=bottom;verticalAlign=top;align=center;" vertex="1" parent="1">
                    <mxGeometry x="974" y="-1410" width="30" height="60" as="geometry"/>
                </mxCell>
                <mxCell id="47" value="&lt;br&gt;&lt;b&gt;extension points&lt;/b&gt;&lt;br&gt;wrong password&lt;br&gt;login help" style="html=1;shape=mxgraph.sysml.useCaseExtPt;whiteSpace=wrap;align=center;" vertex="1" parent="1">
                    <mxGeometry x="348" y="-1280" width="160" height="100" as="geometry"/>
                </mxCell>
                <mxCell id="48" value="Login" style="resizable=0;html=1;verticalAlign=middle;align=center;labelBackgroundColor=none;fontStyle=1;" connectable="0" vertex="1" parent="47">
                    <mxGeometry x="80" y="21.25" as="geometry"/>
                </mxCell>
                <mxCell id="51" value="Error invalid login" style="ellipse;whiteSpace=wrap;html=1;" vertex="1" parent="1">
                    <mxGeometry x="598" y="-1265" width="140" height="70" as="geometry"/>
                </mxCell>
                <mxCell id="53" value="provides login help" style="ellipse;whiteSpace=wrap;html=1;" vertex="1" parent="1">
                    <mxGeometry x="573" y="-1180" width="140" height="70" as="geometry"/>
                </mxCell>
                <mxCell id="55" value="&amp;lt;&amp;lt;extend&amp;gt;&amp;gt;" style="edgeStyle=none;html=1;startArrow=open;endArrow=none;startSize=12;verticalAlign=bottom;dashed=1;labelBackgroundColor=none;exitX=1;exitY=0.5;exitDx=0;exitDy=0;exitPerimeter=0;entryX=0;entryY=0.5;entryDx=0;entryDy=0;" edge="1" parent="1" source="47" target="51">
                    <mxGeometry width="160" relative="1" as="geometry">
                        <mxPoint x="524" y="-1210" as="sourcePoint"/>
                        <mxPoint x="684" y="-1210" as="targetPoint"/>
                    </mxGeometry>
                </mxCell>
                <mxCell id="56" value="&amp;lt;&amp;lt;extend&amp;gt;&amp;gt;" style="edgeStyle=none;html=1;startArrow=open;endArrow=none;startSize=12;verticalAlign=bottom;dashed=1;labelBackgroundColor=none;exitX=0.855;exitY=0.855;exitDx=0;exitDy=0;exitPerimeter=0;entryX=-0.015;entryY=0.356;entryDx=0;entryDy=0;entryPerimeter=0;" edge="1" parent="1" source="47" target="53">
                    <mxGeometry width="160" relative="1" as="geometry">
                        <mxPoint x="518" y="-1220" as="sourcePoint"/>
                        <mxPoint x="608" y="-1220" as="targetPoint"/>
                    </mxGeometry>
                </mxCell>
                <mxCell id="60" style="edgeStyle=none;html=1;" edge="1" parent="1" source="59" target="10">
                    <mxGeometry relative="1" as="geometry">
                        <Array as="points">
                            <mxPoint x="100" y="-930"/>
                            <mxPoint x="100" y="-1200"/>
                        </Array>
                    </mxGeometry>
                </mxCell>
                <mxCell id="62" style="edgeStyle=none;html=1;entryX=0;entryY=0.5;entryDx=0;entryDy=0;" edge="1" parent="1" source="59" target="61">
                    <mxGeometry relative="1" as="geometry"/>
                </mxCell>
                <mxCell id="82" style="edgeStyle=none;html=1;entryX=0;entryY=0.5;entryDx=0;entryDy=0;" edge="1" parent="1" source="59" target="78">
                    <mxGeometry relative="1" as="geometry"/>
                </mxCell>
                <mxCell id="96" style="edgeStyle=none;html=1;entryX=0;entryY=0;entryDx=0;entryDy=0;" edge="1" parent="1" source="59" target="95">
                    <mxGeometry relative="1" as="geometry"/>
                </mxCell>
                <mxCell id="59" value="Driver" style="shape=umlActor;html=1;verticalLabelPosition=bottom;verticalAlign=top;align=center;" vertex="1" parent="1">
                    <mxGeometry x="130" y="-960" width="30" height="60" as="geometry"/>
                </mxCell>
                <mxCell id="61" value="Adds new route + time" style="ellipse;whiteSpace=wrap;html=1;" vertex="1" parent="1">
                    <mxGeometry x="358" y="-1000" width="140" height="70" as="geometry"/>
                </mxCell>
                <mxCell id="63" value="Adds &lt;br&gt;(per person/ per km)&lt;br&gt;&amp;nbsp;fee" style="ellipse;whiteSpace=wrap;html=1;" vertex="1" parent="1">
                    <mxGeometry x="611" y="-1050" width="140" height="70" as="geometry"/>
                </mxCell>
                <mxCell id="64" value="&amp;lt;&amp;lt;extend&amp;gt;&amp;gt;" style="edgeStyle=none;html=1;startArrow=open;endArrow=none;startSize=12;verticalAlign=bottom;dashed=1;labelBackgroundColor=none;entryX=0;entryY=0.5;entryDx=0;entryDy=0;exitX=1;exitY=0;exitDx=0;exitDy=0;" edge="1" parent="1" source="61" target="63">
                    <mxGeometry width="160" relative="1" as="geometry">
                        <mxPoint x="288" y="-1050" as="sourcePoint"/>
                        <mxPoint x="448" y="-1050" as="targetPoint"/>
                    </mxGeometry>
                </mxCell>
                <mxCell id="65" value="Displays passengers looking for rides in the route" style="ellipse;whiteSpace=wrap;html=1;" vertex="1" parent="1">
                    <mxGeometry x="692" y="-960" width="140" height="70" as="geometry"/>
                </mxCell>
                <mxCell id="66" value="&amp;lt;&amp;lt;include&amp;gt;&amp;gt;" style="edgeStyle=none;html=1;endArrow=open;verticalAlign=bottom;dashed=1;labelBackgroundColor=none;exitX=1;exitY=1;exitDx=0;exitDy=0;entryX=0;entryY=0.5;entryDx=0;entryDy=0;" edge="1" parent="1" source="61" target="65">
                    <mxGeometry width="160" relative="1" as="geometry">
                        <mxPoint x="288" y="-880" as="sourcePoint"/>
                        <mxPoint x="448" y="-880" as="targetPoint"/>
                    </mxGeometry>
                </mxCell>
                <mxCell id="69" style="edgeStyle=none;html=1;" edge="1" parent="1" source="67" target="10">
                    <mxGeometry relative="1" as="geometry">
                        <mxPoint x="60" y="-1180" as="targetPoint"/>
                        <Array as="points">
                            <mxPoint x="80" y="-670"/>
                            <mxPoint x="80" y="-1235"/>
                        </Array>
                    </mxGeometry>
                </mxCell>
                <mxCell id="72" style="edgeStyle=none;html=1;entryX=0;entryY=0.5;entryDx=0;entryDy=0;" edge="1" parent="1" source="67" target="71">
                    <mxGeometry relative="1" as="geometry"/>
                </mxCell>
                <mxCell id="88" style="edgeStyle=none;html=1;entryX=0;entryY=0.5;entryDx=0;entryDy=0;" edge="1" parent="1" source="67" target="75">
                    <mxGeometry relative="1" as="geometry"/>
                </mxCell>
                <mxCell id="89" style="edgeStyle=none;html=1;entryX=0;entryY=0.5;entryDx=0;entryDy=0;" edge="1" parent="1" source="67" target="83">
                    <mxGeometry relative="1" as="geometry"/>
                </mxCell>
                <mxCell id="94" style="edgeStyle=none;html=1;entryX=0;entryY=0.5;entryDx=0;entryDy=0;" edge="1" parent="1" source="67" target="93">
                    <mxGeometry relative="1" as="geometry"/>
                </mxCell>
                <mxCell id="67" value="Passenger" style="shape=umlActor;html=1;verticalLabelPosition=bottom;verticalAlign=top;align=center;" vertex="1" parent="1">
                    <mxGeometry x="130" y="-700" width="30" height="60" as="geometry"/>
                </mxCell>
                <mxCell id="70" style="edgeStyle=none;html=1;" edge="1" parent="1" source="68">
                    <mxGeometry relative="1" as="geometry">
                        <mxPoint x="120" y="-1260" as="targetPoint"/>
                        <Array as="points">
                            <mxPoint x="50" y="-160"/>
                            <mxPoint x="50" y="-1260"/>
                        </Array>
                    </mxGeometry>
                </mxCell>
                <mxCell id="90" style="edgeStyle=none;html=1;entryX=0;entryY=1;entryDx=0;entryDy=0;" edge="1" parent="1" source="68" target="86">
                    <mxGeometry relative="1" as="geometry"/>
                </mxCell>
                <mxCell id="92" style="edgeStyle=none;html=1;entryX=0.086;entryY=0.857;entryDx=0;entryDy=0;entryPerimeter=0;" edge="1" parent="1" source="68" target="91">
                    <mxGeometry relative="1" as="geometry"/>
                </mxCell>
                <mxCell id="68" value="Tracker" style="shape=umlActor;html=1;verticalLabelPosition=bottom;verticalAlign=top;align=center;" vertex="1" parent="1">
                    <mxGeometry x="124" y="-190" width="30" height="60" as="geometry"/>
                </mxCell>
                <mxCell id="71" value="Adds start, destination + time" style="ellipse;whiteSpace=wrap;html=1;" vertex="1" parent="1">
                    <mxGeometry x="369" y="-680" width="150" height="70" as="geometry"/>
                </mxCell>
                <mxCell id="73" value="Displays drivers who's routes fall along the start/destination position" style="ellipse;whiteSpace=wrap;html=1;" vertex="1" parent="1">
                    <mxGeometry x="642" y="-740" width="156" height="70" as="geometry"/>
                </mxCell>
                <mxCell id="74" value="&amp;lt;&amp;lt;include&amp;gt;&amp;gt;" style="edgeStyle=none;html=1;endArrow=open;verticalAlign=bottom;dashed=1;labelBackgroundColor=none;exitX=1;exitY=0;exitDx=0;exitDy=0;entryX=0;entryY=0.5;entryDx=0;entryDy=0;" edge="1" parent="1" source="71" target="73">
                    <mxGeometry width="160" relative="1" as="geometry">
                        <mxPoint x="448.9187067409357" y="-880.4636865171672" as="sourcePoint"/>
                        <mxPoint x="553.000000000003" y="-855.0000000000002" as="targetPoint"/>
                    </mxGeometry>
                </mxCell>
                <mxCell id="75" value="Selects a driver" style="ellipse;whiteSpace=wrap;html=1;" vertex="1" parent="1">
                    <mxGeometry x="318" y="-595" width="150" height="70" as="geometry"/>
                </mxCell>
                <mxCell id="76" value="Communicates pickup and dropoff locations" style="ellipse;whiteSpace=wrap;html=1;" vertex="1" parent="1">
                    <mxGeometry x="609" y="-630" width="156" height="70" as="geometry"/>
                </mxCell>
                <mxCell id="77" value="&amp;lt;&amp;lt;include&amp;gt;&amp;gt;" style="edgeStyle=none;html=1;endArrow=open;verticalAlign=bottom;dashed=1;labelBackgroundColor=none;exitX=1;exitY=0;exitDx=0;exitDy=0;entryX=0;entryY=0.5;entryDx=0;entryDy=0;" edge="1" parent="1" target="76">
                    <mxGeometry width="160" relative="1" as="geometry">
                        <mxPoint x="447.39499592568677" y="-584.5786489181735" as="sourcePoint"/>
                        <mxPoint x="634.610000000003" y="-765.0000000000002" as="targetPoint"/>
                    </mxGeometry>
                </mxCell>
                <mxCell id="78" value="Gets selected by passenger" style="ellipse;whiteSpace=wrap;html=1;" vertex="1" parent="1">
                    <mxGeometry x="318" y="-910" width="150" height="70" as="geometry"/>
                </mxCell>
                <mxCell id="79" value="Communicates pickup and dropoff locations" style="ellipse;whiteSpace=wrap;html=1;" vertex="1" parent="1">
                    <mxGeometry x="566" y="-880" width="156" height="70" as="geometry"/>
                </mxCell>
                <mxCell id="80" value="&amp;lt;&amp;lt;include&amp;gt;&amp;gt;" style="edgeStyle=none;html=1;endArrow=open;verticalAlign=bottom;dashed=1;labelBackgroundColor=none;exitX=1;exitY=1;exitDx=0;exitDy=0;entryX=0;entryY=0.5;entryDx=0;entryDy=0;" edge="1" parent="1" source="78" target="79">
                    <mxGeometry width="160" relative="1" as="geometry">
                        <mxPoint x="428.00499592569065" y="-809.5786489181751" as="sourcePoint"/>
                        <mxPoint x="553.610000000003" y="-995.0000000000002" as="targetPoint"/>
                    </mxGeometry>
                </mxCell>
                <mxCell id="83" value="Confirms ride" style="ellipse;whiteSpace=wrap;html=1;" vertex="1" parent="1">
                    <mxGeometry x="343" y="-510" width="150" height="70" as="geometry"/>
                </mxCell>
                <mxCell id="86" value="Share ride details + live location with tracker(s)" style="ellipse;whiteSpace=wrap;html=1;" vertex="1" parent="1">
                    <mxGeometry x="567" y="-310" width="143" height="80" as="geometry"/>
                </mxCell>
                <mxCell id="87" value="&amp;lt;&amp;lt;extend&amp;gt;&amp;gt;" style="edgeStyle=none;html=1;startArrow=open;endArrow=none;startSize=12;verticalAlign=bottom;dashed=1;labelBackgroundColor=none;rounded=0;fontSize=14;entryX=0;entryY=0;entryDx=0;entryDy=0;exitX=1;exitY=0.5;exitDx=0;exitDy=0;" edge="1" parent="1" target="86" source="83">
                    <mxGeometry width="160" relative="1" as="geometry">
                        <mxPoint x="504" y="-590" as="sourcePoint"/>
                        <mxPoint x="632" y="-415" as="targetPoint"/>
                    </mxGeometry>
                </mxCell>
                <mxCell id="91" value="Confirm tracking responsibility" style="ellipse;whiteSpace=wrap;html=1;" vertex="1" parent="1">
                    <mxGeometry x="378" y="-320" width="140" height="70" as="geometry"/>
                </mxCell>
                <mxCell id="93" value="Rate driver &lt;br&gt;+ tip (free rides)" style="ellipse;whiteSpace=wrap;html=1;" vertex="1" parent="1">
                    <mxGeometry x="339" y="-420" width="150" height="70" as="geometry"/>
                </mxCell>
                <mxCell id="95" value="Rate passenger" style="ellipse;whiteSpace=wrap;html=1;" vertex="1" parent="1">
                    <mxGeometry x="339" y="-800" width="150" height="70" as="geometry"/>
                </mxCell>
            </root>
        </mxGraphModel>
    </diagram>
</mxfile>